<?xml version="1.0" encoding="UTF-8" standalone="no"?>
<!-- Created with Inkscape (http://www.inkscape.org/) -->

<svg
   xmlns:dc="http://purl.org/dc/elements/1.1/"
   xmlns:cc="http://creativecommons.org/ns#"
   xmlns:rdf="http://www.w3.org/1999/02/22-rdf-syntax-ns#"
   xmlns:svg="http://www.w3.org/2000/svg"
   xmlns="http://www.w3.org/2000/svg"
   xmlns:sodipodi="http://sodipodi.sourceforge.net/DTD/sodipodi-0.dtd"
   xmlns:inkscape="http://www.inkscape.org/namespaces/inkscape"
   width="960"
   height="960"
   id="svg2"
   version="1.1"
   inkscape:version="0.48.1 "
   sodipodi:docname="disk-save.svg">
  <sodipodi:namedview
     id="base"
     pagecolor="#ffffff"
     bordercolor="#666666"
     borderopacity="1.0"
     inkscape:pageopacity="0.0"
     inkscape:pageshadow="2"
     inkscape:zoom="0.41053452"
     inkscape:cx="593.8982"
     inkscape:cy="469.78826"
     inkscape:document-units="px"
     inkscape:current-layer="layer1"
     showgrid="true"
     inkscape:snap-grids="false"
     inkscape:snap-to-guides="false"
     showguides="true"
     inkscape:guide-bbox="true"
     inkscape:window-width="1024"
     inkscape:window-height="712"
     inkscape:window-x="-4"
     inkscape:window-y="-4"
     inkscape:window-maximized="1">
    <inkscape:grid
       type="xygrid"
       id="grid3833"
       empspacing="5"
       visible="true"
       enabled="true"
       snapvisiblegridlinesonly="true" />
  </sodipodi:namedview>
  <metadata
     id="metadata7">
    <rdf:RDF>
      <cc:Work
         rdf:about="">
        <dc:format>image/svg+xml</dc:format>
        <dc:type
           rdf:resource="http://purl.org/dc/dcmitype/StillImage" />
        <dc:title />
      </cc:Work>
    </rdf:RDF>
  </metadata>
  <g
     inkscape:label="Layer 1"
     inkscape:groupmode="layer"
     id="layer1">
    <path
       style="fill:#0e0000;opacity:0.75;"
       d="M 240,60 60.6875,602.34375 57.75,602.34375 57.75,900.03125 901.9375,900.03125 901.9375,606.78125 901.9375,602.34375 900.5,602.34375 720,60 z M 676.25991,120.49835 841.25,602.34375 122.84375,602.34375 285.38491,120 z M 420,240 420,420 300,420 480,540 660,420 540,420 540,240 z M 122.1875,662.3125 841.9375,662.3125 841.9375,844.46875 122.1875,844.46875 z M 599.8125,720.0625 599.8125,780.0625 662,780.0625 662,720.0625 z M 717.53125,720.0625 717.53125,780.0625 781.96875,780.0625 781.96875,720.0625 z"
       id="rect2989" />
  </g>
</svg>
